<svg xmlns="http://www.w3.org/2000/svg" version="1.1" xmlns:xlink="http://www.w3.org/1999/xlink" width="774" height="774"><svg version="1.1" id="SvgjsSvg1051" width="774" height="774" viewBox="0 0 774.00001 774" sodipodi:docname="icon.svg" inkscape:version="1.4.2 (ebf0e940d0, 2025-05-08)" xmlns:inkscape="http://www.inkscape.org/namespaces/inkscape" xmlns:sodipodi="http://sodipodi.sourceforge.net/DTD/sodipodi-0.dtd" xmlns="http://www.w3.org/2000/svg" xmlns:svg="http://www.w3.org/2000/svg">
  <defs id="SvgjsDefs1050"></defs>
  <sodipodi:namedview id="SvgjsSodipodi:namedview1049" pagecolor="#ffffff" bordercolor="#000000" borderopacity="0.25" inkscape:showpageshadow="2" inkscape:pageopacity="0.0" inkscape:pagecheckerboard="0" inkscape:deskcolor="#d1d1d1" inkscape:zoom="1.1289062" inkscape:cx="242.26991" inkscape:cy="372.92735" inkscape:window-width="2256" inkscape:window-height="1430" inkscape:window-x="0" inkscape:window-y="0" inkscape:window-maximized="1" inkscape:current-layer="svg1"></sodipodi:namedview>
  <path style="display:inline;fill:#f16e5d;stroke-width:1.00229" d="M 353.52597,772.87887 C -60.009473,732.53353 -134.50468,150.33986 257.08499,19.174931 298.40732,5.3338106 370.60692,-4.9267694 374.58709,2.4762406 c 2.16218,4.02159 1.37116,767.4573794 -0.7972,769.4107494 -1.7954,1.61739 -9.82434,2.01039 -20.26392,0.99188 z" id="SvgjsPath1048"></path>
  <path style="display:inline;fill:#39898a;stroke-width:1.00229" d="m 498.84564,144.08333 c -14.78095,-5.24603 -17.065,-25.30154 -3.83283,-33.65477 8.12994,-5.13227 18.71069,-3.67673 24.98543,3.43713 13.30512,15.08439 -2.03739,37.00199 -21.1526,30.21764 z" id="SvgjsPath1047"></path>
  <path style="display:inline;fill:#39898a;stroke-width:1.00229" d="m 629.28689,246.70208 c -10.32529,-4.90239 -14.3359,-15.56239 -9.6541,-25.6601 9.24148,-19.93202 39.47494,-11.57302 37.00597,10.23147 -1.40456,12.40425 -16.1744,20.73562 -27.35187,15.42863 z" id="SvgjsPath1046"></path>
  <path style="display:inline;fill:#39898a;stroke-width:1.00229" d="m 689.59857,396.11977 c -16.02982,-4.42728 -18.26783,-26.43081 -3.51326,-34.54144 13.20454,-7.25859 28.59203,1.60173 28.59203,16.46365 0,13.41295 -11.62587,21.79335 -25.07877,18.07779 z" id="SvgjsPath1045"></path>
  <path style="display:inline;fill:#39898a;stroke-width:1.00229" d="m 631.29608,566.2159 c -16.39179,-6.3849 -17.27371,-27.39521 -1.48694,-35.42392 15.57204,-7.91951 33.28975,9.81754 25.30094,25.32855 -4.70088,9.12719 -15.04344,13.51167 -23.814,10.09537 z" id="SvgjsPath1044"></path>
  <path style="display:inline;fill:#39898a;stroke-width:1.00229" d="m 496.62664,664.05905 c -13.72828,-6.85972 -14.08592,-26.63112 -0.60457,-33.42293 8.43626,-4.25014 15.63073,-3.43446 22.25548,2.52324 16.95925,15.25161 -1.17429,41.13139 -21.65091,30.89969 z" id="SvgjsPath1043"></path>
  <path id="SvgjsPath1042" style="display:inline;fill:#39898a;stroke-width:1.00229" d="m 419.80952,0.76268056 c -9.68994,-0.44199 -16.64009,-0.004 -18.23573,1.43360004 -2.72263,2.45268 -2.89601,766.5242094 -0.17462,769.5175794 5.56379,6.11981 70.42141,-4.06464 110.32477,-17.32422 C 696.07687,693.13061 807.5568,495.61914 766.35308,303.25878 733.41796,149.50047 608.85431,30.215811 454.48762,4.6103406 c -12.55781,-2.08302 -24.98816,-3.40566 -34.6781,-3.84766004 z m 84.3682,84.39844044 c 28.74159,-1.12883 52.4688,29.255229 38.82008,58.931639 -4.30541,9.36127 -18.58074,21.44922 -25.33067,21.44922 -1.03302,0 -1.35673,8.57232 -1.59714,42.25 -0.3782,52.97926 2.20354,45.8275 -27.31631,75.66211 -26.56882,26.8521 -24.72242,22.57428 -24.72242,57.26953 0,24.8185 5.5e-4,24.81836 44.87708,24.81836 48.64944,0 43.53153,3.07189 108.59027,-65.17578 10.87937,-11.41262 12.71003,-30.78553 3.22569,-34.13867 -43.7924,-15.48256 -24.39339,-84.9618 21.7263,-77.81446 42.24417,6.54673 49.89769,63.33677 10.53646,78.18164 -4.6135,1.73996 -4.61213,1.74018 -5.14854,15.59375 -0.81505,21.04953 3.21507,15.29199 -45.92876,65.60938 -17.3311,17.74497 -17.33177,17.74414 18.12388,17.74414 35.45565,0 35.45592,-7.7e-4 38.1981,-5.56641 18.72005,-37.99492 79.04896,-24.58835 79.04896,17.56641 0,44.4284 -62.11906,57.30686 -79.94564,16.57422 -2.87722,-6.57429 -2.87773,-6.57422 -41.38258,-6.57422 -38.50485,0 -38.50471,0 -38.20202,32.25 0.36315,38.69076 -3.09062,31.12952 28.91542,63.31836 23.3412,23.47449 23.34177,23.47446 32.10775,23.76367 46.13854,1.52217 55.64774,64.87468 11.94328,79.56641 -39.02412,13.1184 -71.72462,-33.80813 -44.47877,-63.82813 4.29529,-4.73264 7.61019,-0.43731 -29.40594,-38.0957 -22.03439,-22.41672 -20.80651,-18.80852 -21.18084,-62.22461 -0.2996,-34.75 -0.29884,-34.75 -46.00528,-34.75 -45.70642,0 -45.70583,0 -45.4088,47.25 0.35545,56.54486 -2.58905,47.50954 24.34962,74.75 29.05451,29.38002 27.68322,26.01268 27.68322,67.95898 0,29.59597 -10e-5,29.59596 6.6515,32.48047 34.90602,15.13717 30.30073,67.28248 -6.81043,77.11524 -48.47983,12.84494 -73.45166,-56.43452 -27.85196,-77.26953 5.91054,-2.70059 5.90983,-2.70135 5.90983,-30.52539 0,-34.8163 2.09003,-29.93893 -24.11613,-56.28907 -30.78089,-30.95 -27.55811,-17.00517 -27.91279,-120.79297 -0.38861,-113.71503 -3.07639,-100.98907 27.90495,-132.14062 26.63605,-26.7824 24.12397,-19.88256 24.12397,-66.2832 0,-37.80959 7.7e-4,-37.80943 -6.45138,-40.60743 -31.49436,-13.65769 -31.38238,-59.06902 0.18249,-73.953119 5.46092,-2.57504 10.95503,-3.86518 16.27755,-4.07422 z"></path>
  <path style="display:inline;fill:#aa4238;stroke-width:1.00229" d="m 267.13092,692.54652 c -46.39648,-4.82569 -94.43179,-48.73392 -94.43179,-86.31843 0,-1.42834 -1.12729,-1.68611 -7.37375,-1.68611 -51.50525,0 -96.145011,-60.56863 -81.877924,-111.09455 1.579743,-5.59456 1.579743,-5.59456 -5.267486,-11.77245 -34.200071,-30.85694 -37.770195,-91.81774 -7.515505,-128.32919 5.452824,-6.58049 5.452824,-6.58049 3.620505,-12.44215 -12.719058,-40.68873 6.018169,-83.73568 45.90173,-105.45473 4.19447,-2.28414 6.117,-3.90127 5.83363,-4.90693 -10.83621,-38.45772 29.30257,-89.06331 73.59259,-92.78302 9.46048,-0.79454 9.07984,-0.50117 12.35306,-9.52065 15.30309,-42.168219 72.31875,-67.068799 113.2425,-49.456659 23.46321,10.09775 47.76142,38.790069 48.49111,57.260329 0.11647,2.94795 0.13248,2.95663 0.92284,0.5 0.44238,-1.375 0.84246,105.95 0.88908,238.5 0.0548,155.92405 -0.25903,240.47048 -0.88908,239.5 -0.7634,-1.17588 -0.97715,-0.926 -0.98921,1.15639 -0.23333,40.29108 -57.90245,81.90301 -106.5023,76.84815 z m 34.23189,-26.33857 c 25.04325,-8.53514 43.17204,-27.54686 49.26651,-51.66597 2.45409,-9.71215 2.02809,-461.79095 -0.44504,-472.28688 -11.54406,-48.992749 -66.02945,-62.621869 -103.15205,-25.80273 -36.55922,36.26036 -15.71581,104.01746 32.32306,105.07483 3.63362,0.08 6.63094,-22.08354 4.44127,-32.84062 -1.93772,-9.51934 -0.72811,-13.98901 4.51641,-16.68865 18.30149,-9.4208 26.74399,26.97441 13.16985,56.77465 -8.18821,17.97615 -32.398,43.7694 -41.08237,43.7694 -14.63447,0 -15.34489,-13.1636 -1.42762,-26.45295 5.21846,-4.98301 5.20871,-5.04387 -1.1344,-7.07589 -29.67168,-9.50538 -52.9923,-40.80845 -52.9923,-71.13112 0,-8.58418 0.41908,-8.38794 -11.45638,-5.3646 -59.96648,15.26672 -60.70047,85.9593 -1.10104,106.04437 15.31521,5.16123 19.28341,12.48495 11.15098,20.58019 -10.13539,10.08905 -52.04331,-10.03113 -66.33971,-31.85 -2.27552,-3.47285 -2.20495,-3.47998 -9.73063,0.98255 -46.895873,27.80799 -44.610734,95.44137 3.81588,112.93891 10.37865,3.75002 12.25202,3.36792 17.69506,-3.60911 21.94669,-28.13183 51.27742,-29.01949 84.59675,-2.56022 20.4012,16.20082 31.9127,19.45142 43.60627,12.31348 21.1091,-12.88534 12.65529,-42.06283 -14.31667,-49.41251 -17.46999,-4.76047 -16.82461,-24.60138 0.75284,-23.14456 41.71697,3.4575 63.09952,54.63147 35.31122,84.50889 -20.03588,21.5422 -49.16581,19.42872 -78.91567,-5.72561 -21.07874,-17.82266 -37.05309,-19.20543 -50.19396,-4.34488 -9.11816,10.31142 -2.20654,28.14506 14.07957,36.32868 9.5061,4.77672 12.12249,13.01042 6.05386,19.0513 -11.14874,11.09776 -41.5685,-10.8992 -44.80771,-32.4011 -0.64632,-4.29025 -0.64632,-4.29025 -9.75387,-6.00409 -16.56613,-3.11738 -27.8747,-8.95487 -39.567935,-20.425 -8.207529,-8.05093 -9.322849,-7.60132 -16.000834,6.45023 -25.8042,54.29618 19.93422,111.75334 71.597099,89.94115 11.36921,-4.80011 19.56961,-1.02629 19.56961,9.00591 0,13.09109 -35.79362,23.40165 -59.24807,17.06674 -6.64783,-1.79554 -6.53709,-1.98206 -7.07128,11.91004 -1.4628,38.04127 22.90381,66.66044 60.34202,70.87313 5.41653,0.60949 5.77641,0.51827 5.77641,-1.46413 0,-16.84243 11.8284,-41.06957 26.95111,-55.20174 8.20967,-7.67194 8.20967,-7.67194 8.22452,-13 0.0605,-21.68992 17.52704,-46.40029 41.2603,-58.37185 19.08136,-9.62505 28.45828,10.13643 10.00625,21.0878 -10.32744,6.12939 -20.53362,16.44848 -24.83283,25.10758 -4.36042,8.78236 -4.66442,8.31896 4.69383,7.15481 45.12067,-5.61297 81.35178,53.46632 48.54315,79.15559 -11.73744,9.19046 -23.19653,-3.63462 -15.69085,-17.56129 15.18025,-28.16669 -19.75876,-51.07842 -49.34465,-32.35842 -68.57462,43.38952 2.05424,157.48263 80.86204,130.62369 z" id="SvgjsPath1041"></path>
</svg><style>@media (prefers-color-scheme: light) { :root { filter: none; } }
@media (prefers-color-scheme: dark) { :root { filter: none; } }
</style></svg>